<svg xmlns="http://www.w3.org/2000/svg" width="256" height="256" viewBox="0 0 256 256"><style type="text/css">.st0{fill:#4F260F;stroke:#4F260F;stroke-miterlimit:10;}</style><path class="st0" d="M207.7 108.2c2.6 10.3 4.1 21.3 4.1 32.8 0 1.3 0 2.6-.1 4l13 5.2 10.8-9.2 8.2 10-16.2 13.8-16.8-7c-1.9 15.3-6.4 29.6-13 42l2.3-3.2 12.7 7.4 12-7.5 6.7 11.2-18 11.2-19.7-11.9c-15.5 24.8-39.5 40.8-66.4 40.8-26.9 0-50.8-15.9-66.3-40.6l-19.5 11.8-18-11.2 6.7-11.2 12 7.5 12.7-7.4.9 1.3c-5.9-11.9-10.1-25.4-11.9-39.8l-16.3 6.8-16.2-13.8 8.2-10 10.8 9.2 12.5-5-.1-4.2c0-11.4 1.4-22.5 4.1-32.8l-21.1-.8-9.2-19.3 11.6-5.7 6.1 12.9 14.5.5.3 4.3c8.7-26.7 25.8-48 47.1-58.6.4-8.2 7-14.7 15.1-14.7h35.4c8.4 0 15.2 6.9 15.2 15.5l-.1 1.1c20.1 11.4 36 32.3 44.1 58.2l.3-5.8 14.6-.7 6.1-12.9 11.5 5.7-9.2 19.3-21.5.8zM170.1 13.3l-1.7 4.6-2.6 1.1-5.4 1.6-4.5 2.8-6.4 3.6v-3.6l7.2-5.3 5.2-1.6 4.6-3.2 2.7-5.5 5.1-1.8-1.4 5.1zM97.7 20.6l-5.4-1.6-2.6-1.1-1.7-4.6-2.8-2.2-1.4-5.1 5.1 1.8 2.7 5.5 4.6 3.2 5.2 1.6 7.1 5.3v3.6l-6.3-3.6z"/></svg>