<?xml version="1.0" encoding="utf-8"?>
<!-- Generator: Adobe Illustrator 18.1.1, SVG Export Plug-In . SVG Version: 6.00 Build 0)  -->
<svg version="1.1" id="Layer_1" xmlns="http://www.w3.org/2000/svg" xmlns:xlink="http://www.w3.org/1999/xlink" x="0px" y="0px"
	 width="256px" height="256px" viewBox="0 0 256 256" style="enable-background:new 0 0 256 256;" xml:space="preserve">
<style type="text/css">
	.st0{fill:#4F260F;stroke:#4F260F;stroke-miterlimit:10;}
</style>
<g>
	<g>
		<path class="st0" d="M207.7,108.2c2.6,10.3,4.1,21.3,4.1,32.8c0,1.3,0,2.6-0.1,4l13,5.2l10.8-9.2l8.2,10l-16.2,13.8l-16.8-7
			c-1.9,15.3-6.4,29.6-13,42l2.3-3.2l12.7,7.4l12-7.5l6.7,11.2l-18,11.2L193.7,207c-15.5,24.8-39.5,40.8-66.4,40.8
			c-26.9,0-50.8-15.9-66.3-40.6L41.5,219l-18-11.2l6.7-11.2l12,7.5l12.7-7.4l0.9,1.3c-5.9-11.9-10.1-25.4-11.9-39.8l-16.3,6.8
			l-16.2-13.8l8.2-10l10.8,9.2l12.5-5c0-1.4-0.1-2.8-0.1-4.2c0-11.4,1.4-22.5,4.1-32.8l-21.1-0.8l-9.2-19.3l11.6-5.7l6.1,12.9
			L48.8,96l0.3,4.3c8.7-26.7,25.8-48,47.1-58.6c0.4-8.2,7-14.7,15.1-14.7h35.4c8.4,0,15.2,6.9,15.2,15.5c0,0.4-0.1,0.7-0.1,1.1
			c20.1,11.4,36,32.3,44.1,58.2l0.3-5.8l14.6-0.7l6.1-12.9l11.5,5.7l-9.2,19.3L207.7,108.2z"/>
		<polygon class="st0" points="170.1,13.3 168.4,17.9 165.8,19 160.4,20.6 155.9,23.4 149.5,27 149.5,23.4 156.7,18.1 161.9,16.5 
			166.5,13.3 169.2,7.8 174.3,6 172.9,11.1 		"/>
		<polygon class="st0" points="97.7,20.6 92.3,19 89.7,17.9 88,13.3 85.2,11.1 83.8,6 88.9,7.8 91.6,13.3 96.2,16.5 101.4,18.1 
			108.5,23.4 108.5,27 102.2,23.4 		"/>
	</g>
</g>
<g>
</g>
<g>
</g>
<g>
</g>
<g>
</g>
<g>
</g>
<g>
</g>
</svg>
